<svg width="25" height="25" viewBox="0 0 25 25" fill="none" xmlns="http://www.w3.org/2000/svg">
<path fill-rule="evenodd" clip-rule="evenodd" d="M12.5 25C19.4036 25 25 19.4036 25 12.5C25 5.59644 19.4036 0 12.5 0C5.59644 0 0 5.59644 0 12.5C0 19.4036 5.59644 25 12.5 25Z" fill="#72C850"/>
<path fill-rule="evenodd" clip-rule="evenodd" d="M6.14722 12.7092C6.45232 12.4041 6.94698 12.4041 7.25208 12.7092L10.5666 16.0237L17.7481 8.84222C18.0532 8.53713 18.5479 8.53713 18.853 8.84222C19.1581 9.14732 19.1581 9.64198 18.853 9.94708L11.6714 17.1286C11.0612 17.7388 10.0719 17.7388 9.4617 17.1286L9.46174 17.1286L6.14722 13.8141C5.84212 13.509 5.84212 13.0143 6.14722 12.7092Z" fill="white"/>
</svg>
